<svg xmlns="http://www.w3.org/2000/svg" width="157" height="156" viewBox="0 0 157 156">
  <g id="profile_pic" data-name="profile pic" transform="translate(-116 -178)">
    <rect id="logo_img" data-name="logo img" width="138" height="138" rx="40" transform="translate(116 178)" fill="#282c3a"/>
    <g id="Group_345" data-name="Group 345" transform="translate(159.109 210.555)">
      <ellipse id="Ellipse_34" data-name="Ellipse 34" cx="12.727" cy="12.727" rx="12.727" ry="12.727" transform="translate(15.218 1)" fill="none" stroke="#fff" stroke-miterlimit="10" stroke-width="4"/>
      <rect id="Rectangle_113" data-name="Rectangle 113" width="56.364" height="32.949" rx="16.474" transform="translate(-0.109 38.496)" fill="none" stroke="#fff" stroke-miterlimit="10" stroke-width="4"/>
    </g>
    <g id="Group_346" data-name="Group 346" transform="translate(-425.186 -237.186)">
      <g id="Path_3187" data-name="Path 3187" transform="translate(646.186 519.186)" fill="#5663ff">
        <path d="M 26 49 C 22.89369964599609 49 19.88191032409668 48.39229965209961 17.04828071594238 47.19377899169922 C 14.3098201751709 46.03549957275391 11.8497896194458 44.37670135498047 9.736550331115723 42.26345062255859 C 7.623300075531006 40.15021133422852 5.964499950408936 37.69018173217773 4.806220054626465 34.95172119140625 C 3.607700109481812 32.11809158325195 3 29.10630035400391 3 26 C 3 22.89369964599609 3.607700109481812 19.88191032409668 4.806220054626465 17.04828071594238 C 5.964499950408936 14.3098201751709 7.623300075531006 11.8497896194458 9.736550331115723 9.736550331115723 C 11.8497896194458 7.623300075531006 14.3098201751709 5.964499950408936 17.04828071594238 4.806220054626465 C 19.88191032409668 3.607700109481812 22.89369964599609 3 26 3 C 29.10630035400391 3 32.11809158325195 3.607700109481812 34.95172119140625 4.806220054626465 C 37.69018173217773 5.964499950408936 40.15021133422852 7.623300075531006 42.26345062255859 9.736550331115723 C 44.37670135498047 11.8497896194458 46.03549957275391 14.3098201751709 47.19377899169922 17.04828071594238 C 48.39229965209961 19.88191032409668 49 22.89369964599609 49 26 C 49 29.10630035400391 48.39229965209961 32.11809158325195 47.19377899169922 34.95172119140625 C 46.03549957275391 37.69018173217773 44.37670135498047 40.15021133422852 42.26345062255859 42.26345062255859 C 40.15021133422852 44.37670135498047 37.69018173217773 46.03549957275391 34.95172119140625 47.19377899169922 C 32.11809158325195 48.39229965209961 29.10630035400391 49 26 49 Z" stroke="none"/>
        <path d="M 26 6 C 14.97195816040039 6 6 14.97195816040039 6 26 C 6 37.02803802490234 14.97195816040039 46 26 46 C 37.02803802490234 46 46 37.02803802490234 46 26 C 46 14.97195816040039 37.02803802490234 6 26 6 M 26 0 C 40.35939788818359 0 52 11.64059829711914 52 26 C 52 40.35939788818359 40.35939788818359 52 26 52 C 11.64059829711914 52 0 40.35939788818359 0 26 C 0 11.64059829711914 11.64059829711914 0 26 0 Z" stroke="none" fill="#fff"/>
      </g>
      <path id="Path_428" data-name="Path 428" d="M43.808,24.426l-8.05-8.05a1.9,1.9,0,0,0-2.71,0L25,24.426a1.916,1.916,0,1,0,2.71,2.71l4.807-4.807V36.2a1.906,1.906,0,0,0,3.812,0V22.33l4.806,4.806a1.9,1.9,0,1,0,2.676-2.709Z" transform="translate(637.588 518.085)" fill="#fff"/>
    </g>
  </g>
</svg>
