<svg id="checkmark" xmlns="http://www.w3.org/2000/svg" width="24.068" height="18.75" viewBox="0 0 24.068 18.75">
  <path id="Path_429" data-name="Path 429" d="M.6,9.724a2.345,2.345,0,0,1,3.575-.329c1.506,1.487,3.618,3.472,3.892,3.2l.365-.367.806-.81,1.154-1.157L11.8,8.851q.783-.782,1.569-1.563Q14.185,6.477,15,5.667q.8-.792,1.608-1.581.742-.726,1.489-1.448.634-.611,1.274-1.217c.29-.274.568-.559.868-.822a2.115,2.115,0,0,1,.919-.585,1.954,1.954,0,0,1,.767.071,2.138,2.138,0,0,1,.744.389A4.922,4.922,0,0,1,23.886,2.03a1.512,1.512,0,0,1-.164,1.69c-2.377,2.85-4.812,5.662-7.341,8.381-1.431,1.535-2.889,3.058-4.447,4.468A7.9,7.9,0,0,1,8.7,18.652a4.207,4.207,0,0,1-3.584-1A16.725,16.725,0,0,1,3.385,16.09c-.545-.555-1.061-1.137-1.554-1.739C1.408,13.833,1,13.3.622,12.752a3.527,3.527,0,0,1-.555-1.005A2.424,2.424,0,0,1,.6,9.724Z" transform="translate(-0.003 0.001)" fill="#fff"/>
</svg>
