<svg xmlns="http://www.w3.org/2000/svg" width="44.35" height="44.354" viewBox="0 0 44.35 44.354">
  <path id="home" d="M43.659,19.291l0,0L25.562,1.2a4.083,4.083,0,0,0-5.775,0L1.7,19.279l-.018.019A4.081,4.081,0,0,0,4.4,26.254c.042,0,.084.006.126.006H5.25V39.575a4.784,4.784,0,0,0,4.779,4.779h7.079a1.3,1.3,0,0,0,1.3-1.3V32.615a2.183,2.183,0,0,1,2.181-2.18h4.175a2.183,2.183,0,0,1,2.18,2.18V43.054a1.3,1.3,0,0,0,1.3,1.3h7.079A4.784,4.784,0,0,0,40.1,39.575V26.26h.669a4.084,4.084,0,0,0,2.89-6.969Zm-1.84,3.935a1.475,1.475,0,0,1-1.05.435H38.8a1.3,1.3,0,0,0-1.3,1.3V39.575a2.183,2.183,0,0,1-2.18,2.18H29.542V32.615a4.785,4.785,0,0,0-4.779-4.779H20.587a4.785,4.785,0,0,0-4.78,4.779v9.139H10.029a2.183,2.183,0,0,1-2.18-2.18V24.961a1.3,1.3,0,0,0-1.3-1.3H4.615l-.061,0a1.483,1.483,0,0,1-1.022-2.532h0L21.626,3.033a1.484,1.484,0,0,1,2.1,0L41.813,21.121l.008.008a1.488,1.488,0,0,1,0,2.1Zm0,0" transform="translate(-0.5 0.001)" fill="#fff"/>
</svg>
