<svg xmlns="http://www.w3.org/2000/svg" width="125.813" height="164.856" viewBox="0 0 125.813 164.856">
  <g id="Group_349" data-name="Group 349" transform="translate(-49 -225)">
    <g id="Group_348" data-name="Group 348" transform="translate(49 225)">
      <g id="Layer_2" data-name="Layer 2" transform="translate(0 61.267)">
        <path id="Path_430" data-name="Path 430" d="M1070.022-368.691c-2.261.531-5.028.027-7.243-.411-6.822-1.35-13.122-4.794-18.62-8.96-14.324-10.855-23.524-26.128-31.442-41.918-2.009-4.006-3.995-8.029-5.821-12.123-.829-1.859-2.887-5.107-2.564-7.261.04-.271-2.143,1.75-2.487,2.192-4.848,6.231-8.4,15.065-7.622,23.04.767,7.865,5.54,15.008,10.445,20.946,5.031,6.091,10.141,11.835,16.713,16.34,14.033,9.617,31.83,12.076,48.326,8.228Z" transform="translate(-993.319 439.388)" fill="#fff"/>
        <path id="Path_431" data-name="Path 431" d="M1068.165-313.872a41.957,41.957,0,0,1-26.263,3.039c-8.521-1.8-16.262-6.224-23.388-11.23a128.44,128.44,0,0,1-25.343-23.223,32.677,32.677,0,0,0,2.3,21.153c4.291,9.048,12.6,14.8,21.62,18.542a49.628,49.628,0,0,0,7.473,2.426,49.127,49.127,0,0,0,15.617,1.184,49.416,49.416,0,0,0,28.018-11.906Z" transform="translate(-992.357 387.916)" fill="#fff"/>
        <path id="Path_432" data-name="Path 432" d="M1134.7-394s6.04,9.816-4.229,32.618c0,0-26.427,47.417-67.8,36.846,0,0,33.524,34.128,61.461-5.889S1138.776-394,1134.7-394Z" transform="translate(-1030.814 414.562)" fill="#fff"/>
        <path id="Path_433" data-name="Path 433" d="M1195.25-406.667s14.346,13.591,8,38.206-32.92,48.021-32.92,48.021,21.292,9.061,37-19.48S1214.579-401.079,1195.25-406.667Z" transform="translate(-1089.705 421.491)" fill="#fff"/>
      </g>
      <g id="Layer_3" data-name="Layer 3" transform="translate(27.183 0)">
        <g id="Group_347" data-name="Group 347">
          <path id="Path_434" data-name="Path 434" d="M1163.659-437.222a10.146,10.146,0,0,0,1.96.715,9.852,9.852,0,0,0,5.671-.226c3.463-1.232,5.846-4.421,7.537-7.685,4.931-9.518,5.631-20.971,2.706-31.283-2.786-9.822-9.051-20.055-17.248-26.308.774,4.844,2,9.433,2.07,14.412a49.926,49.926,0,0,1-1.831,14.341c-1.334,4.709-3.391,9.182-4.891,13.841s-2.437,9.655-1.441,14.447a11.942,11.942,0,0,0,2.682,5.686A9.267,9.267,0,0,0,1163.659-437.222Z" transform="translate(-1110.021 534.907)" fill="#fff"/>
          <path id="Path_435" data-name="Path 435" d="M1123.509-543.268c1.342,3.437,1.366,7.233,1.474,10.869a71.866,71.866,0,0,1-.214,12.12c-.654,4.627-2.89,8.733-5.216,12.71-7.428,12.7-11.971,28.713-2.44,41.59a27.388,27.388,0,0,0,17.095,10.6,3.142,3.142,0,0,0,2.064-.107c.064-.27-.1-.338-.329-.465-3.25-1.779-5.253-5.025-6.958-8.195a24.3,24.3,0,0,1-3.368-10.793,54.8,54.8,0,0,1,3.109-19.234c1.592-4.866,3.792-9.642,4.685-14.707,1.305-7.407,1.135-15.573-1.587-22.653a38.425,38.425,0,0,0-3.425-6.747c-1.071-1.691-2.186-3.366-3.413-4.95a7.161,7.161,0,0,0-1.961-2.059,1.4,1.4,0,0,0,.162,1.273Q1123.362-543.645,1123.509-543.268Z" transform="translate(-1084.825 558.581)" fill="#fff"/>
          <path id="Path_436" data-name="Path 436" d="M1098.484-464.111a21.708,21.708,0,0,1-2.211-1.126,52.017,52.017,0,0,1-5.977-3.325,45.863,45.863,0,0,1-14.3-14.374,36.514,36.514,0,0,1-5-20.586,45.517,45.517,0,0,1,1.38-9.249c.84-3.258,2.549-6.5,3.767-9.639,2.642-6.813,5.886-13.466,7.446-20.645,1.656-7.625.279-14.881-2.006-22.227a26.972,26.972,0,0,0-2.788-6.561,7.765,7.765,0,0,0-1.806-2.1c-.621-.452-2.068-1.276-2.234.007-.573,4.419.07,8.8-.92,13.2-1.481,6.574-5.283,12.275-9.01,17.771-3.533,5.209-7.237,10.654-9.36,16.628-4.654,13.1-4.495,28.633,3.388,40.484,7.956,11.96,21.589,20.751,36.122,21.716A16.916,16.916,0,0,0,1098.484-464.111Z" transform="translate(-1052.359 574.627)" fill="#fff"/>
        </g>
      </g>
    </g>
  </g>
</svg>
