<svg xmlns="http://www.w3.org/2000/svg" viewBox="0 0 343.41 483.16"><defs><style>.cls-1,.cls-2,.cls-3,.cls-4,.cls-5{fill:#e6e6e6;}.cls-1,.cls-2{stroke:#231f20;}.cls-1,.cls-2,.cls-4,.cls-5{stroke-miterlimit:10;}.cls-2,.cls-3,.cls-5{fill-rule:evenodd;}.cls-3,.cls-4,.cls-5{stroke:#000;}.cls-3{stroke-linecap:round;stroke-linejoin:round;}</style></defs><title>map</title><g id="Layer_2" data-name="Layer 2"><g id="map"><g id="Wallonia"><polygon class="cls-1" points="285.5 381.83 285.43 381.1 282.86 376.61 282.76 375.24 283.28 373.69 283.81 370.95 283.86 369.01 283.57 368.62 283.05 368.51 282.41 367.46 282.01 366.29 281.79 365.24 281.98 364.31 282.8 363.5 281.46 363.42 278.25 362.68 277.12 362.14 276.95 361.98 276.78 361.92 276.6 361.98 276.44 362.14 273.94 362.92 273.2 362.88 272.62 362.4 271.98 361.08 271.38 360.52 271.97 359.52 271.11 359.45 270.51 359.2 270.41 358.67 270.99 357.77 269.76 356.22 271.12 354.07 273.46 352.13 275.11 351.14 275.11 350.72 275.95 349.7 276.47 348.66 276.3 347.96 271.19 347.83 269.67 347.03 268.81 345.36 269.79 344.72 265.29 337.82 263.87 336.4 262.63 336.28 259.71 337.09 258.73 336.98 258.44 336 258.71 334.76 258.67 333.64 257.44 333 257.33 332.78 257.33 332.57 257.37 332.35 257.5 332.14 256 332.42 250.63 332.24 249.83 331.98 249.83 331.98 251.22 333.77 251.22 333.77 249.5 336.41 248.86 336.69 247.08 335.77 244.43 336.15 241.29 331.99 239.39 332.5 238.28 331.38 238.1 331.09 237.73 331.64 236.96 331.8 236.16 331.63 234.81 330.86 235.58 328.18 235.71 326.8 234.55 326.45 232.95 325.68 232.52 325.38 228.9 329.04 222.5 330.95 222.64 332.86 220.64 334.6 219.46 334.89 218 333.3 217.41 335.37 215.76 335.53 213.78 334.76 213.78 334.76 212.86 332.46 212.86 332.46 211.86 332.03 208.45 333.18 206.98 334.5 206.62 335.82 204.27 334.53 201.88 336 201.88 336 201.35 334.67 201.35 334.67 200.81 335.78 196.41 335.22 197.22 337.14 197.23 337.14 196.28 338.29 191.36 336.83 191.35 336.83 189.4 337.16 188.28 336.62 187.06 335.04 187.06 335.04 187.1 332.97 187.09 332.97 185.29 331.9 185.29 331.9 182.5 329.68 178.87 332.56 177.75 332.74 176.81 331.94 176.81 331.94 177.07 329.84 177.07 329.84 171.49 330.42 171.49 330.41 171.8 329.15 171.8 329.15 170.03 328.98 168.45 326.34 165.34 325.26 163.36 325.98 162.72 327.47 162.72 327.47 162.43 326.59 162.43 326.59 161.13 327.33 157.27 326.33 156.96 329.32 156.96 329.32 158.31 331.15 158.32 331.15 156.88 332.82 154.41 332.95 154.41 332.95 154.02 330.41 154.02 330.41 152.27 332.32 149.03 333.08 148.87 334.53 146.51 333.17 146.15 332.59 146.15 332.58 146.47 331.24 146.47 331.24 145.4 331.08 143.77 331.59 141.08 333.7 137.53 334.25 137.1 336.02 135.7 335.91 134.29 333.96 133.75 334.58 133.75 334.58 134.53 335.75 134.53 335.75 132.92 335.78 132.72 337.56 132.21 338.17 131.13 338.53 129.08 337.85 127.63 338.9 125.22 336.91 123.21 336.95 121.61 334.72 120.9 334.42 120.17 334.71 119.63 335.99 117.83 335.96 117.25 337.14 117.25 337.14 115.25 336.46 114.2 338.44 113.68 337.64 111.95 338.55 110.54 338.09 109.05 339.29 104.56 339.16 102.99 338.6 101.94 337.23 101.94 337.22 101.58 335.92 102.1 333.98 102.1 333.98 101.32 331.97 97.15 332.89 96.16 331.91 93.2 332.25 93.2 332.25 91.95 328.58 91.95 328.58 88.75 329.95 87.97 328.37 85.85 329.56 82.84 335.42 80.77 333.98 75.88 333.89 75.87 333.89 75.39 330.21 75.39 330.21 72.44 331.09 69.74 329.96 66.42 332.43 63.06 335.95 62.77 336.84 62.04 336.61 61.61 336.58 59.79 335.23 59.79 335.23 59.89 333.63 59.89 333.63 58.32 331.38 55.17 331.85 52.13 330.11 48.83 331.81 47.92 332.14 48.95 333.99 49.86 336.21 50.45 336.9 51.49 337.04 52.48 337.37 53.07 338.45 53.91 341.23 52.88 343.18 53.48 346.56 55.43 353.12 55.55 356.83 55.93 358.15 57.09 359.65 58.06 360.42 61.3 362.11 62.59 362.48 64.39 362.26 67.63 361.08 68.64 360.3 69.37 359.56 70.13 359.06 71.18 358.98 72.25 359.3 72.73 359.91 72.61 360.85 71.89 362.14 72.81 362.83 77.59 362.86 79.27 363.21 80.89 364.02 82.36 365.43 83.56 367.63 84.18 372.12 84.19 377.53 84.84 382.27 87.44 384.71 87.73 383.96 87.84 383.9 87.96 384.01 88.3 383.77 88.5 383.43 88.82 382.46 90.15 380.19 90.75 379.51 91.75 379.14 94.97 378.89 98.05 379.27 99.58 380.05 100.85 380.94 102.17 381.58 103.85 381.56 108.55 379.57 110.12 379.4 111.56 380.09 114.01 382.82 115.59 383.74 117.12 385.11 119.14 389.47 120.5 390.11 121.05 389.57 120.95 388.78 120.99 388.04 121.92 387.64 122.58 387.88 123.58 388.51 124.5 389.31 124.95 390.07 124.77 391.28 124.05 392.11 122.3 393.48 121.51 394.61 121.18 395.56 120.78 397.66 119.36 402.29 119.18 404.38 120.23 404.91 121.7 404.24 122.5 404.11 123.23 404.49 124.48 409.46 124.92 410.55 125.44 411.47 125.41 412.22 123.64 413.11 121.93 414.34 120.57 415.61 120.04 416.27 119.66 417.13 119.36 418.49 119.71 418.63 120.11 420.4 120.2 422.08 119.67 422.04 119.62 422.03 123.76 424.27 124.76 424.56 125.85 424.4 130.42 423.74 141.52 426.8 142.07 426.95 144.27 426.56 154.58 421.43 157.67 420.94 158.47 420.41 159.15 419.09 159.67 417.27 160.24 413.59 160.16 412.8 159.88 412.22 159.71 411.53 159.91 410.39 160.34 409.48 168.23 401.47 170.22 400.55 170.56 402.27 171.39 402.62 173.71 402.14 174.39 403.04 174.29 405.06 173.9 407.44 173.73 409.46 172.93 408.6 172.48 408.7 171.09 411.77 171 412.81 171.12 413.77 171.05 415 168.21 422.12 167.88 423.95 168.87 425.56 172.37 427.01 173.53 429.12 173.66 430.62 173.47 431.61 173.09 432.57 172.69 433.98 172.45 434.57 171.79 435.35 171.65 436.05 171.81 436.62 172.53 437.83 172.72 438.51 172.7 442.8 173.37 443.67 175.3 443.95 176.96 443.68 180.17 442.54 181.53 442.48 181.73 442.47 183.06 443.21 185.82 445.94 187.29 446.78 189.93 447.55 190.81 448.39 193.96 452.97 195.06 454.04 196.41 455.05 198.12 455.55 201.46 454.62 203.06 454.57 204.6 456.11 206.03 457.87 206.54 459.58 206.21 460 205.61 460.38 205.38 462 205.56 463.05 205.92 463.5 207.15 463.74 207.68 463.57 208.07 463 208.38 462.37 208.66 462.06 209.11 462.14 209.96 462.65 212.25 463.49 212.82 464 213.63 464.73 217.19 471.2 217.5 472.24 217.48 473.43 217.24 474.51 217.17 475.52 217.63 476.54 219.22 476.96 221.14 475.84 223 474.37 224.4 473.75 226.71 474.83 227.35 475 228.44 474.85 228.69 474.39 228.85 473.58 229.73 472.37 231.58 471.43 233.24 471.81 234.83 472.6 236.43 472.87 237.35 472.47 238.31 471.21 239.1 470.78 239.9 470.9 241.52 471.9 242.38 472.11 244.14 471.27 245.84 469.45 246.54 467.67 245.29 466.98 246.12 466.19 246.71 465.05 247.66 462.41 248.25 461.72 248.98 461.03 249.4 460.04 248.98 458.42 248.45 457.96 246.96 457.79 246.46 457.4 246.2 456.56 246.31 456.16 246.53 455.79 246.57 455.05 246.68 454.41 247.04 454.01 247.32 453.53 247.25 452.92 247.22 452.66 246.79 451.98 246.31 451.94 245.83 452.1 245.42 452.02 244.98 451.78 243.94 451.46 243.47 451.08 243.5 450.81 243.34 449.22 243.22 448.68 241.48 445.22 240.99 444.49 240.05 443.91 239.25 443.77 238.5 443.41 237.72 442.11 237.27 440.67 237.17 439.3 237.5 438.2 238.38 437.61 237.66 436.94 237.79 436.53 237.93 436.26 238.04 435.92 238.03 435.25 239.97 435.45 239.28 434.41 237.65 433.16 236.78 432.74 237.07 431.64 239.64 427.18 239.94 426.45 240.11 425.87 240.39 425.27 240.97 424.5 241.49 424.15 242.58 423.89 243.19 423.32 244 421.73 243.71 421.1 243.19 420.46 243.27 418.87 243.73 418.25 245.23 417.59 245.76 417.02 245.95 416.11 245.95 415.02 245.86 413.69 246.31 412.97 247.38 412.03 247.84 411.38 248.02 410.59 248.16 408.72 248.43 407.99 249.66 406.87 252.41 405.51 253.51 404.36 254.1 402.7 254.41 401.12 255.03 400.05 256.61 399.89 257.75 398.97 258.22 399.49 258.47 400.6 258.92 401.44 259.57 401.76 259.9 401.92 260.73 402.04 262.41 401.77 263.06 401.37 263.53 400.86 264.1 400.78 265.06 401.71 265.38 402.77 265.3 403.86 265.46 404.77 266.57 405.27 267.24 404.48 267.45 403.7 267.19 402.99 266.44 402.38 266.6 401.81 266.85 400.52 266.99 400.14 267.62 399.74 269.1 399.62 269.65 399.26 270.09 398.17 270.14 396.87 269.73 395.56 268.74 394.46 269.5 393.45 271.18 392.26 271.9 391.14 273.44 390.41 276.62 389.51 277.99 388.28 277.66 387.24 277.81 386.07 278.3 384.96 279.03 384.06 280.03 383.48 280.86 383.55 281.7 383.88 282.7 384.06 284.66 383.7 285.59 382.71 285.5 381.83"/><polygon class="cls-1" points="36.94 325.68 36.94 325.68 35.79 324.92 31.48 326.67 31.41 327.19 31.41 327.19 32.93 328.99 32.93 329 30.14 330.14 29.81 331.23 27.71 331.64 26.66 330.67 26.17 330.81 24.2 332.03 25.7 336.86 26.01 337.96 26.35 338.12 27.5 338.36 28.48 337.61 30.71 333.74 32.05 332.28 33.76 331.21 37.64 329.99 37.57 329.6 36.94 325.68"/></g><polygon id="Brussels" class="cls-2" points="145.37 326.81 142.91 324.99 142.91 324.99 143.54 323.96 145.1 323.75 143.93 320.04 143.93 320.04 140.96 318.13 140.96 318.13 142.11 316.94 142.15 315.81 142.15 315.81 140.99 313.81 139.72 312.82 137.8 314.72 134.63 314.19 131.92 315.56 130.52 318.33 130.52 318.33 131.27 319.67 131.27 319.67 130.8 321.64 128.93 321.95 128.05 323.74 128.05 323.74 130.82 325.29 132.16 324.59 134.12 328.74 136.16 330.12 137.79 330.42 139.36 330.05 145.38 326.81 145.37 326.81"/><g id="Flanders"><polygon class="cls-2" points="251.22 333.77 249.83 331.98 248.98 331.71 242.93 331.87 242 331.09 240.29 329.67 239.55 329.39 238.9 329.89 238.1 331.09 238.28 331.38 239.39 332.5 241.29 331.99 244.43 336.15 247.08 335.77 248.86 336.69 249.5 336.41 251.22 333.77 251.22 333.77"/><path class="cls-2" d="M239.69,309l.85-1.43-.72-.43-.71,0-1.65.45,2.91-4.67,1.17-2.87-1-1.37.18-1.56.37-1.14.6-.37.86.74.56-.76.41-.84.55-1.62-.21-.47-.11-.36-.18-.85.81.09.8-.12.75-.3.68-.46-1.68-1.81.24-1.35,1-1-.18-.57-.66-1.5-1.26-.1-2.27.58-1-.83-1.54-2.14-1.21-.73-.95-.1-3.1.64h-1.27l-.8-.58-.71-.82-1-.71-4.19-1.27-1.26-1.08-.43-.37-.24-2.69-.53-2.29-1.37-1.8L220.5,269l-1.6-.18-1.46.71-3.11,2.2-1.54.57-8.76-.37-2.31.58-.48.12-1.3-.33,0-4.21-1.3-1.66-1.37-.14-2.86.25-1.28-.71-.36-.77-.76-2.61-.39-1L189,258.59l-.47-1.15.26-2.57.83-1.9.26-2-1.45-2.78-2.22-1.48-.21-.28-1.14.29-.44.72-.25,1.1-.51,1.46-1.15,1.92-1.71,2.32L179,256.09l-1.6.44-2.86-1.32-1.36-.37-5.18-.18-1.57-.68.42-1.43.83-.12,3.23,1.51-.54-2.06.33-1.8.46-1.7-.16-1.79-.76-1-1.24-.82-1.35-.52-1.07-.1-2.44,1.26-5.72,7.05-.76.57-1,.38-1.15.08-2.36-.6-2.13.39-1-.09-1.41-1,.14-1.16.63-1.48.1-2-.59-1-.93-.17-2.19.36-4,1.47-3.87,2.27.89,1-.15.85-.48.93-.05,1.2.57,1.07,1.66,2,.45,1.16-.37,2-1.41.75-3.45-.22-1.43-.49-2.68-1.46-.66,0-1.48-.05h0l1.08,1.34.55.95.23,1.23-.05,2.56.29,1.05.58.47,2.49,1.07-1.07,2.28-.6.66-.86.43.14-.24h0l.5-.83.2-.83-.11-.72-.27-.75-.9-1.16-1.34-1.18L129,264.05l-.52-2.16-.59-1.18-1.4-1.32,0,0h0l0,.5-.55,2.76-.41,1.18-2.91,4-3.67,2.89-9.17,4.63L106.26,278l-1.66.53-8.76.11-.92-.41-1.1-1.31-.12-1.23.12-1.31-.38-1.55-1.4-.92-9-3-1.89-.31-1.83.11-2.94.66-1.19.07-1.09.27-.81.84-.14,1.37.19,1.5-.21,1.12-3.5.55-2.36-.28L65.51,274l-.53-.24-1.8-2-1-3,.05-2.76.31-2.94-.64-4.56h0l-16.58,5.39-14.89,9.84L15,282.84l-10,7.63-2.81.94-1.49,1.1h0l1.13,2.7.74,5.19.73,2.27,2.65,2.95L7,307.38l.24,2.34-.44.7-1.71,1.71-.43,1.07,1.46,5.15-.08.76-.57,1.3-.08.54.24.4.89.46.34.38.63,1.48.39.67.54.24,1.09.23.6,0,1.38-.19.7.08,1,.51.37.68.23.79.49.88L17,330.23l.42.77,1,2.36.39.72,1.37,1.15L26.14,338l-.31-1.11L24.32,332l2-1.22.49-.15,1.05,1,2.11-.42.32-1.08,2.8-1.15h0l-1.52-1.81h0l.07-.52,4.31-1.75,1.15.76h0l.63,3.92.06.39,5.88-1.85,1.92.59,1.25,1.19L48,332.13h0l.91-.33,3.3-1.7,3,1.75,3.14-.48L60,333.63h0l-.11,1.6h0l1.82,1.35.43,0,.73.23.29-.89,3.35-3.52L69.86,330l2.7,1.13,2.95-.88h0l.49,3.68h0l4.89.08L83,335.42l3-5.86,2.12-1.19.78,1.58,3.2-1.37h0l1.25,3.67h0l3-.34,1,1,4.17-.92.78,2h0l-.52,1.94.36,1.3h0l1,1.37,1.58.57,4.49.13,1.49-1.2,1.41.46,1.74-.91.52.8,1.05-2,2,.68h0L118,336l1.8,0,.54-1.29.73-.28.71.3,1.6,2.23,2,0,2.41,2,1.45-1.06,2,.68,1.08-.36.51-.62.19-1.78,1.62,0h0l-.79-1.17h0l.54-.62,1.42,2,1.4.1.43-1.76,3.56-.55,2.68-2.11,1.63-.51,1.07.16h0l-.32,1.35h0l.36.59,2.36,1.36.16-1.45,3.24-.76,1.75-1.91h0l.39,2.54h0l2.47-.13,1.44-1.67h0l-1.35-1.82h0l.31-3,3.86,1,1.3-.74h0l.29.88h0l.64-1.49,2-.71,3.1,1.08,1.58,2.64,1.77.16h0l-.32,1.27h0l5.58-.58h0l-.26,2.11h0l.94.79,1.12-.18,3.63-2.88,2.79,2.22h0l1.81,1.06h0l0,2.07h0l1.22,1.58,1.12.54,2-.33h0l4.93,1.46.94-1.16h0l-.82-1.92,4.41.56.54-1.11h0L202,336h0l2.38-1.47,2.35,1.29.36-1.32,1.47-1.32L212,332l1,.43h0l.91,2.29h0l2,.77,1.65-.16.59-2.07,1.46,1.59,1.18-.29,2-1.74-.14-1.9L229,329l3.62-3.65-1.24-.87-1.2-1.79-.16-2.62,5.34-6,.86-.35.86-.31.35-.29,1-1.44Zm-100.2,21-1.57.37-1.63-.29-2-1.38-2-4.15-1.35.7-2.77-1.55h0l.88-1.79,1.88-.31.47-2h0l-.76-1.33h0l1.4-2.78,2.72-1.37,3.16.53,1.92-1.9,1.27,1,1.16,2h0l0,1.13-1.16,1.19h0l3,1.91h0l1.17,3.71-1.57.21-.62,1h0l2.46,1.82h0Z"/></g><g id="Southern-netherlands"><polygon class="cls-2" points="122.45 257.95 121.99 258.38 120.75 260.24 118.24 260.04 117.78 259.85 117.05 259.26 115.3 259.02 114.5 258.74 113.85 258.04 113.04 256.24 112.56 255.51 111.52 254.85 109.83 254.2 108.27 254.13 107.58 255.15 107.19 257.46 106.22 258.6 99.15 261.64 97.4 261.9 94.65 261.11 91.73 261.11 90.18 260.45 87.86 258.39 80.81 256.37 76.22 253.4 75.09 253.53 74.02 254.42 62.34 258.2 62.33 258.2 62.96 262.65 62.66 265.52 62.61 268.21 63.63 271.11 65.39 273.03 65.91 273.27 67.58 274.05 69.89 274.32 73.32 273.78 73.53 272.69 73.34 271.23 73.47 269.9 74.27 269.08 75.33 268.82 76.49 268.75 79.37 268.1 81.16 268 83 268.3 91.85 271.24 93.22 272.14 93.6 273.65 93.48 274.93 93.6 276.13 94.67 277.41 95.57 277.81 104.14 277.7 105.76 277.18 109.06 274.59 118.03 270.08 121.62 267.25 124.47 263.36 124.87 262.21 125.41 259.52 125.45 259.04 123.86 258.11 122.45 257.95"/><polygon class="cls-2" points="91.19 223.22 94.44 223.03 94.86 222.63 96.65 220.5 97.61 220.57 98.22 221.07 98.67 221.7 99.16 222.17 102 223.3 103.14 224.2 103.6 225.7 104.29 227.27 105.85 228.38 108.55 229.38 109.83 229.45 115.39 228.36 116.67 227.86 117.86 227.03 118.61 225.86 118.46 223.98 117.09 223.01 114.07 222.17 113.34 221.56 112.89 220.93 112.53 220.32 109.83 216.99 108.65 216.08 107.05 215.72 100.11 215.53 99.16 215.01 97.97 214.9 97.67 215.01 91.58 215.89 88.94 217.6 88.74 221.37 89.71 222.78 91.19 223.22"/><polygon class="cls-2" points="270.12 255.46 270.21 253.33 270.77 250.87 271.03 248.57 270.68 246.47 270.16 242.67 267.25 239.3 262.43 232.67 262.11 231.24 262.5 229.58 263.35 226.98 258.45 224.83 256.79 222.71 257.76 219.41 257.04 218.67 255.43 217.45 254.6 217.05 252.49 217.1 251.78 216.81 251.84 215.55 252.26 215.13 252.16 215.16 251.93 215.24 250.08 213.99 249.82 213.75 248.53 211.96 248.2 211.51 247.99 211.44 247.64 211.44 246.92 211.59 246.27 212.03 246.24 213.6 238.79 213.23 233.74 209.71 232.34 209.34 231.65 208.84 230.76 206.59 230.34 206.08 227.11 205.36 222.48 206.07 221.43 205.72 220.04 204.77 218.65 205.33 217.23 206.4 215.74 206.95 212.82 206.73 211.38 207.5 210.76 209.78 210.39 211.73 209.46 213.23 208.19 214.3 206.81 214.99 193.56 216.46 192.91 216.24 193.72 214.33 193.73 212.45 191.06 210.63 190.25 210.9 188.5 210.83 185.81 208.77 184.67 207.52 184.52 206.58 184.47 205.92 182.75 206.08 179.07 205.34 177.21 205.37 174.41 207.92 172.61 208.49 168.62 208.55 166.55 210.14 164.97 211.85 163.94 213.89 160.31 218.26 158.03 218.29 156.35 218.8 153.37 220.23 150.85 220.99 148.08 221.07 140.59 219.56 138.4 223.6 135.57 225.53 131.69 226.54 128.71 226.8 125.73 227.75 125.67 227.77 124.04 227.12 122.5 226 120.88 225.37 119.65 226.42 119.46 226.67 119.45 226.69 119.59 227.57 119.96 228.59 120.54 229.28 121.26 229.78 122.03 230.07 124.89 230.2 125.17 230.21 126.08 231.09 126.42 233.28 126.39 233.25 126.39 233.25 124.69 231.81 122.8 231.23 116.32 230.91 114.4 231.45 110.56 233.28 116.28 238.65 118.03 239.69 119.11 239.87 121.4 239.6 122.52 239.69 125.51 241.02 128.1 241.49 128.77 241.61 130.8 242.8 132.31 244.67 132.89 247.17 131.92 249.82 130.51 250.2 129.71 250.41 127.36 250.3 125.93 250.76 124.51 250.03 120.74 250.55 119 250.05 117.93 248.6 116.51 244.6 115.55 242.79 112.57 240.18 109.05 238.76 102.13 238.03 102.13 237.31 102.61 236.87 103.84 236.03 104.6 235.72 103.93 234.03 102.89 232.6 101.72 231.52 100.64 230.9 99.03 230.67 79.6 232.78 72.16 237.37 71.4 238.43 71.69 240.31 72.47 241.56 74.85 243.65 75.73 244.99 76.69 246.84 77.79 248.48 79.09 249.19 83.19 250.12 84.83 250.05 87.82 248.93 88.96 249.05 91.79 251.77 96.15 253.93 98.13 256.02 98.91 256.37 99.69 256.24 100.62 255.64 103.22 255.36 104.33 254.77 105.15 253.57 107.3 249.51 108.31 248.88 111.33 249.19 112.52 249.68 116.5 253.14 117.96 254.03 119.46 254.53 125.97 254.72 127.56 254.24 128.41 253.14 129.14 253.66 129.28 254.56 129.25 255.75 129.44 257.16 129.15 258.7 130.31 258.88 131.76 258.93 132.41 258.95 135.03 260.38 136.43 260.85 139.81 261.07 141.18 260.34 141.54 258.35 141.1 257.21 139.48 255.28 138.91 254.24 138.97 253.06 139.44 252.16 139.59 251.34 138.71 250.38 142.5 248.16 146.38 246.73 148.52 246.38 149.43 246.55 150.01 247.51 149.91 249.45 149.3 250.89 149.16 252.02 150.55 253.02 151.5 253.1 153.59 252.72 155.9 253.31 157.03 253.23 158 252.86 158.75 252.3 164.34 245.42 166.73 244.19 167.77 244.29 169.09 244.8 170.3 245.6 171.05 246.58 171.21 248.33 170.76 249.99 170.44 251.74 170.96 253.75 167.8 252.28 166.99 252.4 166.58 253.79 168.11 254.45 173.17 254.63 174.51 254.99 177.3 256.27 178.87 255.84 180.69 254.06 182.36 251.81 183.49 249.93 183.99 248.51 184.24 247.43 184.67 246.73 185.79 246.44 185.99 246.72 188.16 248.16 189.58 250.88 189.32 252.8 188.52 254.65 188.26 257.16 188.73 258.28 191.22 261.04 191.6 262.04 192.34 264.59 192.69 265.35 193.94 266.04 196.74 265.8 198.08 265.93 199.35 267.55 199.84 271.4 200.66 271.98 201.12 271.86 203.39 271.3 211.95 271.66 213.46 271.1 216.5 268.96 217.93 268.27 219.49 268.45 221.68 269.52 223.53 271.27 224.04 273.51 224.28 276.13 224.7 276.49 226.68 277.9 229.03 278.78 230.01 279.47 230.71 280.27 231.49 280.83 233.59 281.02 235.49 281.15 237.23 280.62 237.87 281 240.38 283.09 241.5 284.7 243.09 284.4 244.18 284.3 244.45 284.9 244.63 285.45 243.61 286.46 243.38 287.77 245.02 289.54 244.36 289.99 243.62 290.28 242.84 290.4 242.05 290.31 242.23 291.15 242.34 291.5 242.55 291.96 242.01 293.54 241.61 294.35 241.41 294.62 240.22 294.37 240.3 295.4 240.24 295.9 239.86 297.15 240.36 298.21 241.61 298.9 241.18 300.15 239.86 302.46 239.11 304.58 238.74 305.71 238.68 306.77 240.49 308.02 240.49 309.22 239.36 309.58 237.89 312.11 237.06 313.44 233.8 316.52 229.8 320.81 230.17 322.57 231.38 323.42 231.8 323.71 233.09 325.26 233.97 325.61 234.59 327.31 235.09 329.89 235.69 331.37 236.93 331.37 238.43 329.83 239.36 329.02 239.93 329.06 240.8 328.96 241.68 329.96 242.93 330.96 246.6 331.4 248.93 331.27 251.11 331.71 252.99 331.65 254.55 331.46 257.1 331.81 255.8 330.01 255.96 328.52 255.49 327.82 254.77 327.32 254.22 326.37 253.91 324.9 255.01 325.18 256.05 324.21 256.43 322.85 256.27 321.8 256.2 320.81 256.84 319.67 257.83 319.1 259.47 319.24 260.27 318.28 260.71 317.1 260.74 316.19 260.12 313.84 260.26 313.08 260.64 312.46 260.78 312 258.42 311.18 256.71 310.11 256.16 309.5 255.97 308.58 255.87 306.93 256.14 305.98 256.59 305.02 256.44 304.42 253.84 304.73 251.94 304.1 250.94 303.97 249.96 304.25 248.08 305.18 247.09 305.38 247.02 302.49 245.9 299.19 245.49 296.5 247.52 295.43 248.52 296 249.38 297.12 250.35 298 251.68 297.86 252.57 296.88 253.96 293.96 254.93 292.83 261.63 287.59 265.75 285.35 266.83 283.92 265.31 282.5 266.96 281.15 267.54 280.81 265.88 280.24 262.27 282.72 260.57 281.77 260.06 279.64 260.27 277.07 260.89 274.78 261.63 273.51 263.15 271.64 266.86 264.8 267.62 264.05 269.46 262.77 270.18 261.75 270.57 260.31 270.79 257.78 271.21 256.76 270.12 255.46"/></g><polygon id="Eastern-Netherlands" class="cls-3" points="329.97 151.18 331.42 147.8 332.04 143.49 331.02 140.45 326.61 133.28 326.15 133.5 325.71 134.29 325.03 134.93 323.22 135.46 321.32 135.59 319.28 135.25 315.54 133.82 309.81 133.01 307.9 132.08 306.48 130.41 306.03 128.65 305.93 126.56 305.68 124.44 304.78 122.58 305.98 122.47 310 120.44 307.63 118.43 307.12 117.66 307.1 116.67 307.43 115.69 307.57 114.62 306.96 113.38 308.21 112.47 308.16 112.44 307.4 111.97 307.22 110.98 307.25 110.11 306.98 109.78 306.57 109.44 301.34 107.05 300.4 107.02 298.29 107.4 294.76 109.24 293.86 110.19 293.71 110.75 293.92 114.29 290.92 112.84 290.49 112.76 289.94 112.76 289.63 113.1 289.04 113.48 288.62 113.53 288.24 113.34 287.96 113.04 287.61 112.5 287.39 112.35 287.22 112.32 286.84 112.66 286.32 112.94 284.63 113.46 284.15 113.45 283.86 113.32 283.78 113.14 283.2 111.56 282.61 110.69 281.35 109.41 280.25 108.5 279.69 107.59 279.42 107.53 275.93 107.58 275.32 107.37 273.09 105.82 271.94 105.39 271.44 105.52 271.02 105.9 270.44 106.27 270.01 106.3 269.44 106.14 269.13 105.89 268.94 105.68 268.45 104.82 268.1 104.54 265.6 97.97 266.3 96.76 268.2 95.83 270.82 93.24 271.15 92.22 270.48 91.19 269.73 90.33 269.18 89.83 265.54 85.45 262.5 86.65 261.1 86.8 259.93 87.13 259.76 87.28 259.68 87.41 259.61 87.93 259.54 88.12 258.51 89.31 255.67 89.1 255.31 88.93 254.65 88.34 253.8 87.08 253.41 86.9 253.22 86.86 253.04 87.08 252.77 87.27 251.31 87.62 250.95 87.84 250.69 88.13 250.52 88.53 250.26 89 249.93 89.49 249.58 89.84 247.44 91.12 246.89 91.23 246.48 91.25 244.44 90.91 244.17 90.78 243.32 90.03 240.62 91.39 245.92 94.29 249.28 97.02 250.12 98.14 250.63 99 251.66 102.03 252.21 105.09 251.81 105.73 251.51 106.43 250.99 106.92 250.85 107.13 251.05 107.32 251.67 107.61 254.59 108.47 256.01 109.25 257.6 111.18 255.29 112.47 251.79 113.67 251.11 113.71 249.93 113.51 249.53 113.27 248.57 113.34 244.9 115.02 244.83 115.1 244.51 115.46 245.03 116.37 245.58 118.37 246.6 122.78 246.87 124.96 246.87 124.98 246.78 127.33 245.96 130.14 244.6 132.5 241.69 136.68 240.15 138.4 237.79 140.14 235.34 141.41 231.17 142.67 228.98 144.48 225.71 148.49 223.36 154.03 222.54 154.93 216.29 156.47 213.2 156.2 213.16 156.18 212.95 157.33 212.69 159.34 212.52 160.63 212.92 161.32 215.54 163.45 215.4 164.6 215.15 165.09 214.68 165.47 214.54 165.63 214.49 165.86 214.93 166.67 216.64 167.23 218.14 167.57 218.64 167.97 219.28 168.92 219.57 169.2 220.16 169.57 220.72 170.2 220.91 170.47 220.9 170.88 220.54 171.59 220.55 172.38 220.62 172.79 220.62 173.02 220.59 173.15 219.81 173.09 219.25 174.28 218.82 175.54 218.61 175.93 218.26 176.34 217.71 176.81 217.82 177.07 217.97 177.27 219.99 178.28 220.65 178.04 221.41 177.45 221.65 177.36 221.94 177.33 222.24 177.14 222.52 176.81 222.82 176.24 222.92 175.78 222.97 175.31 222.65 174.44 223.84 174.16 224.46 176.54 224.53 177.18 224.67 177.87 224.57 180.68 225.21 184.24 226.12 185.87 227.62 187.48 228.11 188.54 228.41 189.07 228.55 189.53 228.65 190.14 228.61 191.98 228.36 192.53 225.93 191.94 220.35 188.58 217.23 187.92 216.32 188.17 214.89 189.2 214.22 189.52 213.4 189.48 211.5 188.79 209.9 189.16 207.77 190.8 206.27 191.19 202.2 188.92 201.12 189.15 199.82 190.16 198.08 190.5 197.01 190.35 195.2 194.06 194.87 194.62 192.33 199.17 192.45 199.82 192.59 200.35 192.59 200.71 192.52 200.96 191.77 201.44 186.21 203.79 184.12 203.91 184.58 204.62 184.57 204.85 184.38 205.79 184.47 206.92 184.52 207.58 184.67 208.52 185.81 209.77 188.5 211.83 190.25 211.9 191.06 211.63 193.73 213.45 193.72 215.33 192.91 217.24 193.56 217.46 206.81 215.99 208.19 215.3 209.46 214.23 210.39 212.73 210.76 210.78 211.38 208.5 212.82 207.73 215.74 207.95 217.23 207.4 218.65 206.33 220.04 205.77 221.43 206.72 222.48 207.07 227.11 206.36 230.34 207.08 230.76 207.59 231.65 209.84 232.34 210.34 233.74 210.71 238.79 214.23 246.24 214.6 246.27 213.03 246.92 212.59 247.64 212.44 247.99 212.44 248.2 212.51 248.53 212.96 249.82 214.75 250.08 214.99 251.93 216.24 252.16 216.16 252.26 216.13 253.44 214.95 253.57 212.6 252.61 210.34 250.96 209.07 251.21 208.03 252.41 207.18 255.37 206.66 256.76 206.06 258.26 204.94 259.3 204.39 262.25 203.6 264.6 204.22 266.3 204.66 267.47 204.95 266.5 203.42 263.8 200.58 262.9 199.9 265.36 198.56 267.69 199.66 270.02 201.55 272.47 202.56 274.73 202.06 275.32 202.13 275.84 202.63 276.64 204.07 276.97 204.47 279.75 204.89 280.92 205.58 281.14 207.4 283.85 206.64 284.15 205.48 283.56 202.84 288.2 204.21 289.67 204.21 290.87 203.67 294.43 200.94 301.63 198.47 308.04 198.26 310 197.2 311.68 195.19 313.33 192.19 313.93 191.54 314.48 191.44 314.85 191.09 314.91 189.66 314.73 188.87 314.36 188.3 312.49 186.32 307.76 183.67 306.18 183.2 305.02 182.39 304.87 180.6 305.38 179.38 306.03 179.06 306.79 179.01 307.66 178.57 308.24 177.84 308.83 176.34 309.21 175.67 310.44 174.4 311.6 173.75 312.01 173.7 316.29 173.22 317.2 172.38 318.8 169.11 320.21 167.64 323.31 166.28 324.76 164.99 326.45 162.23 327.23 161.32 330.45 159.36 330.65 158.75 330.47 158.42 330.05 157.64 329.4 155.12 329.45 152.96 329.97 151.18"/><g id="Western-Netherlands"><polygon class="cls-4" points="228.41 189.07 228.11 188.54 227.62 187.48 226.12 185.87 225.21 184.24 224.57 180.68 224.67 177.87 224.53 177.18 224.46 176.54 223.84 174.16 222.65 174.44 222.97 175.31 222.92 175.78 222.82 176.24 222.52 176.81 222.24 177.14 221.94 177.33 221.65 177.36 221.41 177.45 220.65 178.04 219.99 178.28 217.97 177.27 217.82 177.07 217.71 176.81 218.26 176.34 218.61 175.93 218.82 175.54 219.25 174.28 219.81 173.09 220.59 173.15 220.62 173.02 220.62 172.79 220.55 172.38 220.54 171.59 220.9 170.88 220.91 170.47 220.72 170.2 220.16 169.57 219.57 169.2 219.28 168.92 218.64 167.97 218.14 167.57 216.64 167.23 214.93 166.67 214.49 165.86 214.54 165.63 214.68 165.47 215.15 165.09 215.4 164.6 215.54 163.45 212.92 161.32 212.52 160.63 212.69 159.34 212.95 157.33 213.16 156.18 210.02 154.66 208.43 153.5 207.84 153.61 208.43 153.5 203.3 149.76 201.85 149.58 198.77 149.94 197.04 149.76 195.68 149.22 192.05 146.68 190.6 146.14 187.33 145.87 186.16 145.51 181.7 142.69 182.07 142.15 182.52 141.97 182.62 141.88 182.62 140.97 183.71 141.15 184.16 141.43 184.7 141.88 184.7 140.97 185.8 141.79 186.43 140.51 186.97 138.69 187.88 137.8 188.7 137.53 189.51 136.79 190.15 135.8 190.7 134.52 189.52 133.89 188.98 132.9 188.52 131.9 187.71 131.16 189.16 130.53 189.7 130.44 189.34 129.25 189.17 128.79 190.62 127.26 190.08 124.36 187.72 119 186.71 115.56 186.63 112.56 187.72 110.56 190.26 110.1 192.16 110.83 192.71 111.19 193.99 112.56 194.99 112.38 196.08 111.93 200.53 109.11 201.7 107.75 202.61 104.93 203.71 103.94 206.07 102.75 205.8 101.58 205.61 99.95 205.34 98.49 204.89 97.86 201.17 96.22 199.99 96.14 198.99 96.31 198.18 96.77 197.45 97.5 196.46 98.13 195.55 97.59 194.73 96.68 194.01 96.22 193.01 94.59 192.82 86.97 192.46 84.34 188.83 76.98 187.28 75.72 190.29 74.44 193.36 72.54 197.38 68.97 197.36 68.93 197.36 68.91 197.26 68.48 196.97 67.31 196.83 66.94 196.81 66.82 189.45 73.41 186.61 74.67 183.72 75.05 182.22 75.6 179.15 78.27 177.5 79.21 174.66 79.4 171.69 78.52 170 76.33 171.08 72.67 170.54 71.78 169.82 72.47 165.37 71.78 164.53 72.83 163.99 75.29 163.7 78.14 163.63 80.36 162.93 84.29 159.87 92.24 159.18 95.97 158.97 97.77 157.69 103.67 154.62 126.74 153.2 129.78 153.2 130.65 152.57 134.01 148.2 146.88 147.53 148.1 140.87 160.21 132.02 173.21 121.69 185.81 119.21 187.42 116.41 187.88 113.05 187.13 112.55 187.91 112.14 188.8 112.95 190.77 114.33 195.36 114.56 197.16 114.41 197.53 114.07 198 113.73 198.64 113.58 199.55 113.74 200.28 114.16 200.76 114.65 201.16 116.49 203.7 117.04 204.77 116.15 205.53 115.4 205.87 114.86 205.93 114.56 205.87 112.55 204.77 110.13 204.22 108.72 204.33 108.1 205.17 103.56 206.56 101.45 207.99 102.13 211.23 102.81 211.25 103.33 211.16 103.59 210.68 105 210.28 106.87 210.29 108.71 209.72 110.08 208.69 112.13 210.1 113.88 211.7 115.09 214.12 115.55 217.99 116.6 219.52 121.63 221.06 123.46 222.37 124.22 223.17 121.76 223.37 120.51 223.89 119.57 224.92 119.35 225.91 119.37 227.24 119.45 227.69 119.46 227.67 119.65 227.42 120.88 226.37 122.5 227 124.04 228.12 125.67 228.77 125.73 228.75 128.71 227.8 131.69 227.54 135.57 226.53 138.4 224.6 140.59 220.56 148.08 222.07 150.85 221.99 153.37 221.23 156.35 219.8 158.03 219.29 160.31 219.26 163.94 214.89 164.97 212.85 166.55 211.14 168.62 209.55 172.61 209.49 174.41 208.92 177.21 206.37 179.07 206.34 182.75 207.08 184.47 206.92 184.38 205.79 184.57 204.85 184.58 204.62 184.12 203.91 186.21 203.79 191.77 201.44 192.52 200.96 192.59 200.71 192.59 200.35 192.45 199.82 192.33 199.17 194.87 194.62 195.2 194.06 197.01 190.35 198.08 190.5 199.82 190.16 201.12 189.15 202.2 188.92 206.27 191.19 207.77 190.8 209.9 189.16 211.5 188.79 213.4 189.48 214.22 189.52 214.89 189.2 216.32 188.17 217.23 187.92 220.35 188.58 225.93 191.94 228.36 192.53 228.61 191.98 228.65 190.14 228.55 189.53 228.41 189.07"/><polygon class="cls-4" points="166.57 68.58 169 67.86 170.63 64.69 174.04 61.87 176.06 58.76 177 56.89 177.5 55.31 176.02 55.31 176.02 54.56 177.27 53.62 177.29 51.73 176.55 49.59 175.53 47.92 175.93 47.35 175.98 46.78 175.82 46.16 175.53 45.45 173.25 45.33 171.44 48.31 169.73 51.92 166.31 54.87 164.52 57.79 163.09 61.34 162.64 64.48 164.02 67.53 166.57 68.58"/><polygon class="cls-4" points="232.8 116.43 230.81 114.35 229.54 115.35 225.37 116.7 224.09 117.62 220.91 120.79 220.19 120.89 218.74 120.7 218.2 121.16 216.46 125.62 215.46 126.34 212.75 127.44 209.47 130.42 204.04 132.6 200.95 135.69 196.41 138.14 194.32 140.14 193.06 140.87 193.78 142.67 194.06 144.4 194.51 145.77 196.05 146.58 199.32 146.4 200.49 146.58 205.49 148.49 207.75 149.76 212.1 153.21 214 154.02 218.82 153.84 221.36 152.84 222.91 150.76 223.36 147.76 222.82 144.12 224.81 143.03 225.82 142.66 226.99 142.57 228.09 142.03 229.63 139.76 230.54 139.22 232.44 138.86 235.89 137.23 237.97 136.86 239.98 136.13 241.88 134.31 243.42 131.96 244.61 129.69 245.7 126.79 245.7 124.42 244.24 119.15 232.8 116.43"/><polygon class="cls-4" points="256.01 109.25 254.59 108.47 251.67 107.61 251.05 107.32 250.85 107.13 250.99 106.92 251.51 106.43 251.81 105.73 252.21 105.09 251.66 102.03 250.63 99 250.12 98.14 249.28 97.02 245.92 94.29 240.62 91.39 239.89 89.56 238.08 87.64 237.38 87.2 235.9 87.44 235.71 87.47 235.65 87.46 233.24 87.95 231.05 89.5 229.33 91.87 227.88 94.76 227.24 97.77 226.69 102.75 226.78 107.38 228.06 109.38 228.96 110.11 230.69 113.38 231.33 114.29 232.5 114.65 242.04 114.11 243.31 114.38 244.31 115.11 244.51 115.46 244.83 115.1 244.9 115.02 248.57 113.34 249.53 113.27 249.93 113.51 251.11 113.71 251.79 113.67 255.29 112.47 257.6 111.18 256.01 109.25"/></g><g id="Northern-Netherlands"><polygon class="cls-5" points="289.51 2.31 292.1 3.18 292.27 2.72 292.5 2.41 292.76 2.26 293.09 2.28 289.11 0.52 288.1 0.7 288.23 1.5 289.51 2.31"/><polygon class="cls-5" points="298.89 2.93 299.16 2.12 299.71 1.93 299.88 1.67 298.25 1.67 297.52 2.3 297.34 2.93 298.43 3.48 298.89 2.93"/><polygon class="cls-5" points="342.19 47.73 342.69 45.66 342.91 43.78 342.84 41.85 342.63 38.42 341.81 38.41 336.58 37.06 334.39 35.8 334.24 33.85 333.88 32.84 333.86 32.31 334.15 31.95 334.73 31.45 334.73 30.62 334.24 30.62 333.62 31.31 332.76 31.55 331.89 31.32 331.28 30.62 329.99 31.05 327.11 29.4 324.82 28.64 324.32 28.08 323.96 27.51 323.62 27.25 323.48 26.95 321.72 25.69 321.35 25.53 318.91 15.54 317.67 14.26 316.18 13.57 309.02 12.35 291.95 15.01 281.18 18.16 279.33 19.61 278.72 19.82 278.02 19.56 276.75 18.42 276 18.16 269.63 18.36 269.63 18.36 261.76 18.61 254.78 18.96 249.93 21.46 248.26 21.6 245.66 23.47 234.06 28.16 231.54 30.34 228.07 30.93 226.61 31.45 225.3 32.8 224.17 34.44 222.95 35.82 220.29 36.98 218.72 38.36 216.18 41.33 214.71 45.02 212.73 53.24 211.24 56.21 209.77 57.17 206.43 57.95 205.09 59.08 204.02 60.34 196.81 66.82 196.83 66.94 196.97 67.31 197.26 68.48 197.36 68.91 197.36 68.93 197.38 68.97 204.8 62.37 210.88 58.47 211.7 61.01 212.15 62.11 212.88 63.38 213.6 63.83 213.88 65.38 213.79 66.92 213.33 68.36 214.05 69.73 214.34 71.64 213.98 73.54 212.61 75.17 213.62 77.07 212.97 77.99 211.8 78.62 210.98 79.98 210.62 80.17 210.26 80.52 210.26 81.71 210.54 82.43 210.99 82.79 211.54 83.06 211.99 83.61 213.53 84.88 215.8 85.51 220.34 85.7 221.24 85.97 222.97 87.05 224.06 87.32 225.23 87.15 225.97 86.78 227.5 85.7 228.69 85.24 229.78 85.24 235.05 86.78 235.87 87.42 235.65 87.46 235.71 87.47 235.9 87.44 237.38 87.2 238.08 87.64 239.89 89.56 240.62 91.39 243.32 90.03 244.17 90.78 244.44 90.91 246.48 91.25 246.89 91.23 247.44 91.12 249.58 89.84 249.93 89.49 250.26 89 250.52 88.53 250.69 88.13 250.95 87.84 251.31 87.62 252.77 87.27 253.04 87.08 253.22 86.86 253.41 86.9 253.8 87.08 254.65 88.34 255.31 88.93 255.67 89.1 258.51 89.31 259.54 88.12 259.61 87.93 259.68 87.41 259.76 87.28 259.93 87.13 261.1 86.8 262.5 86.65 265.54 85.45 269.18 89.83 269.73 90.33 270.48 91.19 271.15 92.22 270.82 93.24 268.2 95.83 266.3 96.76 265.6 97.97 268.1 104.54 268.45 104.82 268.94 105.68 269.13 105.89 269.44 106.14 270.01 106.3 270.44 106.27 271.02 105.9 271.44 105.52 271.94 105.39 273.09 105.82 275.32 107.37 275.93 107.58 279.42 107.53 279.69 107.59 280.25 108.5 281.35 109.41 282.61 110.69 283.2 111.56 283.78 113.14 283.86 113.32 284.15 113.45 284.63 113.46 286.32 112.94 286.84 112.66 287.22 112.32 287.39 112.35 287.61 112.5 287.96 113.04 288.24 113.34 288.62 113.53 289.04 113.48 289.63 113.1 289.94 112.76 290.49 112.76 290.92 112.84 293.92 114.29 293.71 110.75 293.86 110.19 294.76 109.24 298.29 107.4 300.4 107.02 301.34 107.05 306.57 109.44 306.98 109.78 307.25 110.11 307.22 110.98 307.4 111.97 308.16 112.44 308.21 112.47 309.51 111.53 311.94 110.77 318.8 110.66 322.64 111.82 326.21 111.29 327.3 111.75 329.88 112.56 331.2 110.02 331.73 105.82 332.4 92.95 333.03 88.96 333.77 86.89 334.32 85.33 340.26 75.97 341.83 71.96 342.5 68.14 342.61 63.84 341.94 55.23 341.67 54.18 341.32 53.56 341.04 52.79 340.99 51.35 341.17 50.38 342.19 47.73"/><polygon class="cls-5" points="198.87 25.42 208.9 21 211.48 20.34 214.7 18.91 217.71 18.66 218.66 18.16 218.51 17.73 218.34 16.84 218.2 16.43 222.42 16.26 224.47 15.54 226.16 13.2 215.42 15.28 214.45 16.02 213.27 16.96 203.55 18.96 201.9 18.91 200.62 20.09 196.74 21.46 195.93 23.54 196.81 25.37 198.87 25.42"/><polygon class="cls-5" points="182.82 33 178.09 37.37 175.03 41.33 177.29 42.35 179.14 40.72 180.72 38.36 186.43 32.78 188.54 31.97 189.45 31.45 191.38 31.45 191.38 30.62 187.74 30.12 182.82 33"/><polygon class="cls-5" points="232.93 16.05 236.41 14.44 238.28 13.95 245.72 13.95 252.88 12.29 249.93 10.74 232.57 11.46 231.48 10.99 230.25 12.02 229.83 13.8 231.1 15.61 232.93 16.05"/><polygon class="cls-5" points="265.37 12.05 265.39 12.44 265.82 13.2 267.25 11.36 279.69 7.33 280.68 7.33 280.68 6.5 278.66 5.86 271.5 6.5 269.59 6.98 266.88 8.2 265.06 9.8 265.82 11.46 265.37 12.05"/></g><g id="Amsterdam"><polygon class="cls-4" points="162.55 133.72 161.57 137.86 164.08 138.46 164.08 140.65 163.98 140.93 164.08 141.74 163.84 143.95 165.36 144.98 166.85 146.07 167.29 146.91 167.47 146.96 168.92 148.02 169.06 148.32 170.92 148.07 170.88 147.8 171.22 147.68 172.29 147.72 172.29 148.8 175.67 148.8 176.18 148.92 176.71 149.27 176.96 149.27 177.15 149.11 177.1 147.74 177.89 147.32 178.39 146.83 179.16 147.06 180.2 146.56 181.19 145.28 181.46 144.6 181.88 144.22 182.57 144.49 184.3 146.13 185.22 146.2 185.81 145.31 184.96 144.34 183.88 143.48 183.53 143.69 183.26 143.85 182.74 143.98 182.39 143.92 180.95 142.89 180.98 142.48 182.94 142.46 181.16 141 181.12 140.75 181.37 140.37 182.25 140.93 182.81 141.7 183.14 141.73 183.63 141.24 184.36 141 184.6 141.56 185.16 141.81 185.56 141.72 185.72 141.05 185.6 140.37 186.72 139.62 186.97 138.4 187.23 137.95 188.46 137.14 188.98 136.22 189.46 136.11 190.16 136.23 190.29 135.97 190.13 135.78 188.82 136.03 188.04 135.8 187.34 135.93 187 135.4 186.38 135.29 186.09 135.56 184.67 134.69 183.75 134.68 183.68 134.87 183.48 134.91 183.1 134.39 182.28 134.93 180.16 135.14 179.91 136.05 178.8 136.53 176.06 134.66 175.51 134.55 174.16 134.56 173.78 133.91 173.36 133.8 172.96 133.9 172.62 134.61 172.76 135.25 172.48 135.71 171.28 135.38 165.53 134.13 164.77 134.19 162.55 133.72"/><polygon class="cls-4" points="182.38 143.62 182.88 143.85 183.86 143.09 183.3 142.73 183.16 142.98 182.64 143 182.38 143.33 182.38 143.62"/><polygon class="cls-4" points="178.58 151.02 180.65 154.88 181.75 154.75 181.9 154.41 182.13 153.97 183.12 153.28 184.27 153.41 184.63 152.95 184.63 152.6 184.73 152.14 185.48 151.43 186.35 151.55 185.99 148.7 185.87 148.6 184.27 150.06 184.26 149.46 183.64 148.08 183.31 147.75 182.77 147.75 182.66 147.65 180.52 148.79 180.03 148.08 179.18 148.69 179.54 149.16 179.29 149.84 178.75 150.47 178.58 150.66 178.58 151.02"/></g><polygon id="Luxembourg" class="cls-4" points="293.99 442.19 291.77 441.54 288.27 441.54 286.97 441.17 285.77 440.34 283.65 438.31 282.45 437.48 281.81 437.48 280.7 438.12 280.15 438.12 280.06 437.76 279.32 435.82 278.94 435.17 277.84 434.52 275.35 433.42 274.24 432.22 271.84 426.4 270.55 424.37 269.72 425.94 269.17 424.93 268.06 421.7 266.76 419.76 266.49 418.84 266.67 417.55 266.21 415.15 265.75 414.22 264.91 413.76 265.56 412.46 265.85 412.1 265.2 412.1 265.1 412 265.56 408.87 265.94 407.3 266.49 405.64 265.38 405.18 265.29 404.81 265.2 404.25 265.2 403.15 264.82 402.13 264.73 402.04 263.91 401.21 263.26 401.21 262.79 401.76 262.24 402.13 262.15 402.22 260.49 402.5 259.66 402.41 259.66 402.13 259.01 401.76 258.55 400.94 258.27 399.82 257.91 399.37 257.81 399.27 256.7 400.19 255.88 400.29 255.14 400.38 254.49 401.39 254.21 402.78 254.21 402.97 253.66 404.62 252.55 405.73 249.79 407.03 249.04 407.76 248.58 408.22 248.3 408.97 248.21 410.07 248.12 410.9 248.03 411.36 247.94 411.73 247.75 412 247.48 412.37 246.37 413.3 246.18 413.58 245.91 414.03 246 414.96 246 416.34 245.82 417.18 245.82 417.27 245.72 417.36 245.26 417.82 243.78 418.46 243.32 419.12 243.23 420.68 243.78 421.33 244.06 421.97 243.23 423.55 242.86 423.91 242.58 424.19 241.48 424.46 240.92 424.84 240.46 425.48 240.28 425.85 240.09 426.22 240 426.4 239.91 426.77 239.82 426.96 239.63 427.51 237.97 430.37 237.05 432.03 236.96 432.49 236.76 433.15 237.6 433.61 237.88 433.79 239.26 434.8 239.91 435.82 237.97 435.64 237.97 436.19 237.88 436.46 237.88 436.55 237.79 436.83 237.69 437.21 238.34 437.85 237.42 438.4 237.14 439.51 237.23 440.89 237.51 441.63 237.69 442.37 238.43 443.67 239.17 444.03 239.26 444.03 240 444.12 240.28 444.31 240.92 444.67 241.39 445.23 241.48 445.33 241.94 446.25 243.23 448.83 243.32 449.39 243.51 450.95 243.51 451.23 243.88 451.51 244.89 451.79 245.08 451.88 244.99 451.88 245.45 451.97 245.72 451.88 245.91 451.79 246.37 451.79 246.82 452.43 246.82 453.27 246.73 453.45 246.55 453.73 246.18 454.09 246.09 454.73 246.09 455.48 245.91 455.85 245.82 456.21 246 456.67 246.09 457.05 246.55 457.42 248.03 457.6 248.58 458.06 248.76 458.98 248.95 459.73 248.49 460.74 247.75 461.39 247.2 462.03 246.64 463.6 246.27 464.7 245.72 465.81 244.89 466.55 245.63 467.01 246.09 467.29 245.72 468.21 245.35 469.04 243.69 470.89 241.94 471.72 244.24 474.76 245.54 475.97 247.38 476.79 252 477.91 253.38 479.29 254.4 482.51 255.69 482.06 261.97 481.69 263.07 481.32 263.81 480.21 264.73 479.84 264.91 479.19 264.91 478.45 265.29 477.81 265.85 477.63 267.88 477.44 267.41 476.42 271.66 475.97 273.78 476.15 275.81 476.97 279.41 479.75 281.35 480.85 282.82 481.04 282.82 480.21 282.55 476.79 283.19 472.09 283.19 468.49 283.65 467.29 284.76 465.54 286.7 463.23 287.44 461.66 288 460.82 288.18 460.37 288.09 459.63 287.62 459.17 287.15 458.88 287.06 458.52 288.18 456.95 293.62 453.45 293.44 453.17 292.97 452.61 293.25 452.06 293.62 451.88 294.45 452.25 293.9 451.6 293.53 450.76 293.35 449.85 293.44 448.82 294.18 448.18 294.18 447.73 293.99 447.26 293.99 446.43 294.36 443.94 294.45 443.85 294.45 442.83 294.63 442.64 294.27 442.19 293.99 442.19"/></g></g></svg>