<svg xmlns="http://www.w3.org/2000/svg" width="32.925" height="43.909" viewBox="0 0 32.925 43.909">
  <g id="news" transform="translate(-726 -1651)">
    <g id="newspaper" transform="translate(726 1651)">
      <path id="Path_3176" data-name="Path 3176" d="M94.489,0H66.521a2.481,2.481,0,0,0-2.478,2.478V41.431a2.481,2.481,0,0,0,2.478,2.478H94.489a2.481,2.481,0,0,0,2.478-2.478V2.478A2.481,2.481,0,0,0,94.489,0Zm1.192,41.431a1.193,1.193,0,0,1-1.192,1.192H66.521a1.193,1.193,0,0,1-1.192-1.192V2.478a1.193,1.193,0,0,1,1.192-1.192H94.489a1.193,1.193,0,0,1,1.192,1.192V41.431Z" transform="translate(-64.043 0)" fill="#fff"/>
      <path id="Path_3177" data-name="Path 3177" d="M122.685,33.805H106.236a.643.643,0,1,0,0,1.286h16.449a.558.558,0,0,1,.557.557v8.926h-5.291a.643.643,0,1,0,0,1.286h5.291V67.344a.558.558,0,0,1-.557.557H99.154a.558.558,0,0,1-.557-.557V45.861h16.782a.643.643,0,0,0,0-1.286H98.6V35.649a.558.558,0,0,1,.557-.557h4.509a.643.643,0,1,0,0-1.286H99.154a1.846,1.846,0,0,0-1.844,1.844V67.344a1.846,1.846,0,0,0,1.844,1.844h23.531a1.846,1.846,0,0,0,1.844-1.844V35.649a1.846,1.846,0,0,0-1.844-1.844Z" transform="translate(-94.457 -30.906)" fill="#fff"/>
      <path id="Path_3178" data-name="Path 3178" d="M231.439,462.509h-3.665a.643.643,0,0,0,0,1.286h3.665a.643.643,0,1,0,0-1.286Z" transform="translate(-213.144 -422.844)" fill="#fff"/>
      <path id="Path_3179" data-name="Path 3179" d="M144.318,205.362h7.129a.643.643,0,0,0,.643-.643V197.59a.643.643,0,0,0-.643-.643h-7.129a.643.643,0,0,0-.643.643v7.129A.643.643,0,0,0,144.318,205.362Zm.643-7.129H150.8v5.842h-5.842Z" transform="translate(-136.846 -180.057)" fill="#fff"/>
      <path id="Path_3181" data-name="Path 3181" d="M280.214,202.608h-6.851a.643.643,0,1,0,0,1.286h6.851a.643.643,0,1,0,0-1.286Z" transform="translate(-254.824 -185.232)" fill="#fff"/>
      <path id="Path_3182" data-name="Path 3182" d="M280.214,238.508h-6.851a.643.643,0,1,0,0,1.286h6.851a.643.643,0,1,0,0-1.286Z" transform="translate(-254.824 -218.053)" fill="#fff"/>
      <path id="Path_3183" data-name="Path 3183" d="M280.214,274.409h-6.851a.643.643,0,1,0,0,1.286h6.851a.643.643,0,1,0,0-1.286Z" transform="translate(-254.824 -250.876)" fill="#fff"/>
      <path id="Path_3184" data-name="Path 3184" d="M161.563,320.63H144.7c-.564,0-1.022.288-1.022.643s.457.643,1.022.643h16.867c.564,0,1.022-.288,1.022-.643S162.128,320.63,161.563,320.63Z" transform="translate(-136.322 -293.133)" fill="#fff"/>
      <path id="Path_3185" data-name="Path 3185" d="M161.563,356.531H144.7c-.564,0-1.022.288-1.022.643s.457.643,1.022.643h16.867c.564,0,1.022-.288,1.022-.643S162.128,356.531,161.563,356.531Z" transform="translate(-136.322 -325.955)" fill="#fff"/>
      <path id="Path_3186" data-name="Path 3186" d="M161.563,392.431H144.7c-.564,0-1.022.288-1.022.643s.457.643,1.022.643h16.867c.564,0,1.022-.288,1.022-.643S162.128,392.431,161.563,392.431Z" transform="translate(-136.322 -358.776)" fill="#fff"/>
    </g>
    <rect id="Rectangle_1106" data-name="Rectangle 1106" width="5.832" height="1.286" transform="translate(734.061 1653.907)" fill="#fff"/>
    <rect id="Rectangle_1107" data-name="Rectangle 1107" width="4.545" height="1.286" transform="translate(745.982 1664.67)" fill="#fff"/>
  </g>
</svg>
