<svg xmlns="http://www.w3.org/2000/svg" width="35.664" height="46.271" viewBox="0 0 35.664 46.271">
  <g id="parliament" transform="translate(-2.323 4.108)">
    <path id="Path_3166" data-name="Path 3166" d="M6.681,18.074V33.211H8.739a1.938,1.938,0,0,0,1.937-1.937V16.137H8.618A1.937,1.937,0,0,0,6.681,18.074Z" transform="translate(-0.331 -1.884)" fill="none" stroke="#fff" stroke-linejoin="round" stroke-width="2"/>
    <path id="Path_3167" data-name="Path 3167" d="M15.412,18.074V33.211h2.059a1.938,1.938,0,0,0,1.937-1.937V16.137H17.349A1.937,1.937,0,0,0,15.412,18.074Z" transform="translate(-1.19 -1.884)" fill="none" stroke="#fff" stroke-linejoin="round" stroke-width="2"/>
    <path id="Path_3168" data-name="Path 3168" d="M24.142,18.074V33.211H26.2a1.938,1.938,0,0,0,1.937-1.937V16.137H26.08A1.937,1.937,0,0,0,24.142,18.074Z" transform="translate(-2.05 -1.884)" fill="none" stroke="#fff" stroke-linejoin="round" stroke-width="2"/>
    <path id="Path_3169" data-name="Path 3169" d="M32.873,18.074V33.211h2.058a1.938,1.938,0,0,0,1.937-1.937V16.137H34.81A1.937,1.937,0,0,0,32.873,18.074Z" transform="translate(-2.909 -1.884)" fill="none" stroke="#fff" stroke-linejoin="round" stroke-width="2"/>
    <path id="Path_3170" data-name="Path 3170" d="M36.267,11.36a3.586,3.586,0,0,0-1.6-2.422L22.208.462A3.154,3.154,0,0,0,18.982.427L5.843,8.972A3.483,3.483,0,0,0,4.218,11.36v1.332H36.267Z" transform="translate(-0.088 -3)" fill="none" stroke="#fff" stroke-linejoin="round" stroke-width="2"/>
    <path id="Path_3171" data-name="Path 3171" d="M3.323,41.458A1.937,1.937,0,0,0,5.26,43.4H35.049a1.938,1.938,0,0,0,1.937-1.937V37.987H3.323Z" transform="translate(0 -2.232)" fill="none" stroke="#fff" stroke-linejoin="round" stroke-width="2"/>
  </g>
</svg>
