<svg xmlns="http://www.w3.org/2000/svg" width="96" height="97" viewBox="0 0 96 97">
  <g id="Group_3543" data-name="Group 3543" transform="translate(33.472 8.422)">
    <rect id="logo_img" data-name="logo img" width="96" height="97" rx="10" transform="translate(-33.472 -8.422)" fill="#282c3a"/>
    <path id="Path_3236" data-name="Path 3236" d="M2330.333-455.322l4.244,12.078h18.063l4.9-12.078S2342.955-464.68,2330.333-455.322Zm17.125,8.476-3.369-1.628-3.251,1.853.507-3.707-2.767-2.519,3.682-.663,1.541-3.41,1.769,3.3,3.719.412-2.589,2.7Z" transform="translate(-2329.157 459.481)" fill="#fff"/>
    <path id="Path_3237" data-name="Path 3237" d="M2340.013-337h-15.179L2317-291.136l15.778,14.363s15.07-14.526,15.723-14.363S2340.013-337,2340.013-337Zm-2.309,50.907-4.832-2.453-4.76,2.59.84-5.354-3.934-3.727,5.351-.856,2.329-4.893,2.467,4.825,5.374.7-3.826,3.838Z" transform="translate(-2318 356.991)" fill="#fff"/>
  </g>
</svg>
