<svg xmlns="http://www.w3.org/2000/svg" width="96" height="97" viewBox="0 0 96 97">
  <g id="economics" transform="translate(0.453 2.481)">
    <rect id="logo_img" data-name="logo img" width="96" height="97" rx="10" transform="translate(-0.453 -2.481)" fill="#282c3a"/>
    <path id="Path_3235" data-name="Path 3235" d="M12.39,49.567h6.782V43.074c10.605-1.082,15.872-7.287,15.872-15.295,0-9.884-8.369-12.77-15.872-14.646V3.177A20.484,20.484,0,0,1,28.19,7.866l5.7-7.647A25.262,25.262,0,0,0,19.171-6.2v-6.854H12.39v6.71C2.65-5.336-3.122.868-3.122,8.155c0,9.812,8.08,12.626,15.511,14.429V33.767a21.121,21.121,0,0,1-11.471-6.2L-4.709,35.57c3.968,3.968,9.523,6.854,17.1,7.5ZM24.582,28.789c0,2.309-1.732,4.4-5.411,5.122V24.243C22.346,25.254,24.582,26.408,24.582,28.789ZM7.412,7.361c0-2.453,1.8-4.184,4.978-4.617v8.73C9.432,10.536,7.412,9.454,7.412,7.361Z" transform="translate(32.775 27.635)" fill="#fff"/>
  </g>
</svg>
