<svg xmlns="http://www.w3.org/2000/svg" width="33.048" height="46.354" viewBox="0 0 33.048 46.354">
  <g id="wars" transform="translate(-11 -6.242)">
    <path id="Path_3165" data-name="Path 3165" d="M27.177,18.825V14.534a3.875,3.875,0,0,0-2.819-3.715c1.4-1.634,3.717-2.384,9.472-2.384A2.218,2.218,0,1,0,33.83,4C26.787,4,22.185,5.013,19.5,10.185a2.079,2.079,0,0,0-.133.468H17.752a3.885,3.885,0,0,0-3.881,3.881v4.291a15.524,15.524,0,1,0,13.306,0Zm-6.653,7.352a6.661,6.661,0,0,0-6.653,6.653,2.218,2.218,0,0,1-4.435,0A11.1,11.1,0,0,1,20.524,21.742a2.218,2.218,0,1,1,0,4.435Z" transform="translate(7 3.242)" fill="none" stroke="#fff" stroke-width="2"/>
  </g>
</svg>
