<svg xmlns="http://www.w3.org/2000/svg" width="81" height="81" viewBox="0 0 81 81">
  <g id="world" transform="translate(-70.298 -27.668)">
    <rect id="Rectangle_1098" data-name="Rectangle 1098" width="81" height="81" rx="12" transform="translate(70.298 27.668)" fill="#141825"/>
    <path id="Path_3233" data-name="Path 3233" d="M31,0A31,31,0,1,1,0,31,31,31,0,0,1,31,0Z" transform="translate(79.298 36.668)" fill="#fff"/>
    <g id="Group_3526" data-name="Group 3526" transform="translate(81.08 38.494)">
      <path id="Path_3190" data-name="Path 3190" d="M299.247,60.619l-2.783,1.976-.65,2.57-2.584-2.24-4.022-.237L285.932,61.6l-4.367,1.092L278.29,61.6l2.183-4.367,5,1.216,3.731-4.073C292.507,56,296.712,57.948,299.247,60.619Z" transform="translate(-246.022 -53.966)" fill="#141825"/>
      <path id="Path_3191" data-name="Path 3191" d="M114.432,52.963l-.172,2.067.172,2.584-3.1,6.547-3.963,3.446-2.658-2.288-4.923-.813-2.746,1.9v3.275l-.183,1.884,2.409,4.666-3.291-2.183L92.7,71.869l-2.252-7.363c3.27-7.792,8.322-14.8,16.16-17.952l3.343,5.2Z" transform="translate(-91 -49)" fill="#141825"/>
      <path id="Path_3192" data-name="Path 3192" d="M148.91,207.792l-1.082,5.441-7.3,2.446-2.412,4.135,2.067,7.064-1.009,2.716-3.265-1.088-1.24-5.419-2.929-9.476-3.484-2.527-2.191-4.367v-3.275l2.191-2.183L129.5,200l4.232,2.351,5.072-1.489,7.409,2.584Z" transform="translate(-120.023 -173.984)" fill="#141825"/>
      <path id="Path_3193" data-name="Path 3193" d="M286.739,112.618c5.907,10.632,6.965,25.516,0,35.474l-3.963-3.945L282.6,137.6l-2.068-5.169-4.48-1.9-3.1-1.723-2.412-2.067-.472-1.972-6.937-1.13L259,115.03l4.135-5.169,2.757-.861,7.426,4.857,6.492,1.092,6.492-2.183Z" transform="translate(-230.055 -98.663)" fill="#141825"/>
    </g>
  </g>
</svg>
