<svg xmlns="http://www.w3.org/2000/svg" width="53" height="53" viewBox="0 0 53 53">
  <g id="Group_3540" data-name="Group 3540" transform="translate(-283 -134)">
    <rect id="Rectangle_1109" data-name="Rectangle 1109" width="53" height="53" rx="12" transform="translate(283 134)" fill="#141825"/>
    <g id="crown" transform="translate(291.087 108.149)">
      <path id="Path_3194" data-name="Path 3194" d="M34.7,420.32H2.161a2.16,2.16,0,0,1,0-4.319H34.7a2.16,2.16,0,0,1,0,4.319Z" transform="translate(-0.002 -351.645)" fill="none" stroke="#fff" stroke-linejoin="round" stroke-width="2"/>
      <g id="Group_3528" data-name="Group 3528" transform="translate(6.83 41.04)">
        <path id="Path_3195" data-name="Path 3195" d="M100.274,108.541l-2.4-2.247a1.08,1.08,0,0,0-1.709.314l-1.268,2.6,3.549,1.767Z" transform="translate(-94.901 -106.001)" fill="none" stroke="#fff" stroke-linejoin="round" stroke-width="2"/>
        <path id="Path_3196" data-name="Path 3196" d="M347.835,109.206l-1.268-2.6a1.08,1.08,0,0,0-1.709-.314l-2.4,2.247,1.824,2.432Z" transform="translate(-324.641 -106.002)" fill="none" stroke="#fff" stroke-linejoin="round" stroke-width="2"/>
      </g>
      <path id="Path_3197" data-name="Path 3197" d="M211.92,42.84a3.419,3.419,0,1,1,3.419-3.419A3.423,3.423,0,0,1,211.92,42.84Z" transform="translate(-193.493)" fill="none" stroke="#fff" stroke-linejoin="round" stroke-width="2"/>
      <g id="Group_3529" data-name="Group 3529" transform="translate(-0.002 43.679)">
        <path id="Path_3198" data-name="Path 3198" d="M36.42,143.109a1.08,1.08,0,0,0-1.125-.1l-9.468,4.714-3.8-5.068a5.564,5.564,0,0,1-7.2,0l-3.8,5.068L1.56,143.009a1.08,1.08,0,0,0-1.546,1.148L2.75,160.173H34.1l2.736-16.015a1.079,1.079,0,0,0-.42-1.048ZM18.427,157.725a4.319,4.319,0,1,1,4.319-4.319A4.324,4.324,0,0,1,18.427,157.725Z" transform="translate(0.002 -142.655)" fill="none" stroke="#fff" stroke-linejoin="round" stroke-width="2"/>
      </g>
    </g>
  </g>
</svg>
