<svg xmlns="http://www.w3.org/2000/svg" width="51" height="51" viewBox="0 0 51 51">
  <g id="uique_resource" data-name="uique resource" transform="translate(-204 -49)">
    <rect id="Rectangle_1108" data-name="Rectangle 1108" width="51" height="51" rx="12" transform="translate(204 49)" fill="#141825"/>
    <g id="Layer_2" data-name="Layer 2" transform="translate(208.998 56.003)">
      <g id="clay" transform="translate(0.002 -0.003)">
        <path id="Path_3189" data-name="Path 3189" d="M25.072,16.336a11.281,11.281,0,0,0,6.1-.186,8.306,8.306,0,0,0,3.6-2.4,8.822,8.822,0,0,1,3.266,9.188c-.5,2.154-1.959,4.508-4.553,4.667a15.791,15.791,0,0,1-7.5-1.82c-2.648-1.15-5.382-2.335-8.6-1.236a1.228,1.228,0,0,0-.278.138c-.321.212-7.928,5.128-12.406-.612-1.957-2.511-2.645-5-1.993-7.186A6.332,6.332,0,0,1,5.419,13.4c3.571-1.74,6.318-1.4,8.167,1.03a1.217,1.217,0,1,0,1.935-1.474A7.342,7.342,0,0,0,9.3,9.88c.133-.3.26-.613.381-.922.927-2.344,1.977-5,7-6.192,5.141-1.22,7.658,1.476,10.846,4.889a33.858,33.858,0,0,0,5.162,4.767C31.657,13.46,29.5,14.8,25.572,13.954a1.215,1.215,0,1,0-.511,2.376ZM26.343,2.945A10.961,10.961,0,0,0,18.905.014C13.8-.276,9.252,3.335,7.439,7.959a5.062,5.062,0,0,1-1.23,2.189c-.756.616-1.81.938-2.631,1.526a8.632,8.632,0,0,0-3.23,4.5c-.624,2.07-.711,5.382,2.409,9.369a9.5,9.5,0,0,0,7.729,3.684,14.874,14.874,0,0,0,5.469-1.349c1.916-.79,3.492-1.74,5.619-1.182,0,0,3.027.846,3.182,1.25l.162.073a18.061,18.061,0,0,0,8.628,2.006,6.7,6.7,0,0,0,1.764-.345,8.152,8.152,0,0,0,5.034-6.206c.8-4.7-.674-9.768-5.021-12.218A22.48,22.48,0,0,1,30.169,6.97C30.135,6.87,26.344,2.946,26.343,2.945Z" transform="translate(-0.002 0.003)" fill="#fff"/>
      </g>
    </g>
    <text id="clay-2" data-name="clay" transform="translate(230 97)" fill="#fff" font-size="11" font-family="ProximaNova-Regular, Proxima Nova" letter-spacing="0.025em"><tspan x="-9.97" y="0">clay</tspan></text>
  </g>
</svg>
